<svg width="32" height="32" viewBox="0 0 32 32" fill="none" xmlns="http://www.w3.org/2000/svg">
<g id="arrows / circle-chevron-left">
<path id="icon" fill-rule="evenodd" clip-rule="evenodd" d="M16 30.6666C7.89986 30.6666 1.33337 24.1001 1.33337 15.9999C1.33337 7.89974 7.89986 1.33325 16 1.33325C24.1002 1.33325 30.6667 7.89974 30.6667 15.9999C30.6667 24.1001 24.1002 30.6666 16 30.6666ZM16 27.9999C22.6275 27.9999 28 22.6273 28 15.9999C28 9.3725 22.6275 3.99992 16 3.99992C9.37262 3.99992 4.00004 9.3725 4.00004 15.9999C4.00004 22.6273 9.37262 27.9999 16 27.9999ZM16.3905 22.2761L18.2762 20.3904L13.8856 15.9999L18.2762 11.6094L16.3905 9.72378L10.1144 15.9999L16.3905 22.2761Z" fill="#283C63"/>
</g>
</svg>
